<?xml version="1.0" standalone="no"?>
<!DOCTYPE svg PUBLIC "-//W3C//DTD SVG 20010904//EN"
 "http://www.w3.org/TR/2001/REC-SVG-20010904/DTD/svg10.dtd">
<svg version="1.0" xmlns="http://www.w3.org/2000/svg"
 width="258.000000pt" height="258.000000pt" viewBox="0 0 258.000000 258.000000"
 preserveAspectRatio="xMidYMid meet">
<metadata>
Created by potrace 1.11, written by Peter Selinger 2001-2013
</metadata>
<g transform="translate(0.000000,258.000000) scale(0.100000,-0.100000)"
fill="#000000" stroke="none">
<path d="M1200 2372 c-65 -15 -77 -16 -220 -13 -200 5 -392 -73 -541 -220
-147 -145 -255 -351 -275 -524 -3 -33 -19 -83 -34 -115 -126 -247 -111 -544
37 -778 10 -15 20 -29 23 -32 4 -3 13 -14 21 -26 36 -53 110 -130 165 -175 63
-50 213 -131 227 -122 4 2 -8 23 -26 46 -66 82 -119 196 -143 311 -15 70 -20
227 -10 276 3 14 9 41 12 60 7 36 33 108 61 170 51 112 174 251 285 323 124
81 291 127 443 121 118 -5 169 -20 198 -57 84 -114 147 -298 147 -430 0 -50
-3 -56 -61 -120 -34 -38 -90 -88 -124 -113 -58 -41 -181 -104 -204 -104 -10 0
-74 100 -103 160 -20 42 -45 121 -53 170 -3 19 -8 44 -10 55 -2 11 -4 38 -5
60 l-2 40 -29 -61 c-112 -232 -92 -533 50 -750 111 -168 283 -287 476 -327 43
-9 111 -14 175 -12 161 4 266 38 406 131 199 131 326 350 348 595 2 32 13 74
24 95 38 74 54 133 70 252 27 194 -33 402 -166 576 -100 130 -183 200 -315
262 -40 19 -97 56 -127 84 -30 27 -58 50 -62 50 -4 0 -13 7 -22 15 -8 9 -42
29 -75 45 -176 87 -395 119 -561 82z"/>
</g>
</svg>
